<svg xmlns="http://www.w3.org/2000/svg" viewBox="0 -201.28 495.5 202.28" width="495.5" height="202.28">
<!--
  PlainTicker lockup: stacked, light.
  Mark: The kept place. Wordmark: The whole name in Outfit.
  Its figure blocks stand at the wordmark's cap height and its registers hang below the wordmark's baseline, the way a descender does.
  The mark stands 1.294 cap heights overall. Clear space 0.42 of the Outfit em on
  every side; never set the word and the mark closer than that.
  Generated by design/brand/logo/wordmark.py, do not edit by hand.
-->
  <g transform="translate(0 -201.276) scale(2.068) translate(-25 -32)">
    <rect x="26" y="32" width="13" height="34" fill="#0E141B"/>
    <rect x="47" y="32" width="13" height="34" fill="#0E141B"/>
    <rect x="25" y="66" width="15" height="10" fill="#0E141B"/>
    <rect x="46" y="66" width="15" height="10" fill="#0E141B"/>
    <rect x="67" y="66" width="15" height="10" fill="#5AA9E6"/>
  </g>
  <path d="M0 0V-70.3H27.7Q34.4 -70.3 39.7 -67.6Q45 -64.9 48.15 -59.9Q51.3 -54.9 51.3 -48.2Q51.3 -41.4 48.15 -36.45Q45 -31.5 39.7 -28.8Q34.4 -26.1 27.7 -26.1H13.6V0ZM26.3 -59.2H13.6V-37.2H26.3Q31.2 -37.2 34.45 -40.1Q37.7 -43 37.7 -48.2Q37.7 -53.3 34.45 -56.25Q31.2 -59.2 26.3 -59.2Z" fill="#0E141B"/>
  <path d="M59.2 0V-72.3H72.3V0Z" fill="#0E141B"/>
  <path d="M103.1 1Q96.5 1 91.25 -2.3Q86 -5.6 82.95 -11.3Q79.9 -17 79.9 -24.1Q79.9 -31.2 82.95 -36.95Q86 -42.7 91.25 -46Q96.5 -49.3 103 -49.3Q107.3 -49.3 110.95 -47.8Q114.6 -46.3 117.1 -43.7V-48.3H130.1V0H117.1V-4.6Q114.6 -2 111 -0.5Q107.4 1 103.1 1ZM105.5 -11.1Q111 -11.1 114.4 -14.75Q117.8 -18.4 117.8 -24.2Q117.8 -29.9 114.4 -33.55Q111 -37.2 105.5 -37.2Q100.1 -37.2 96.7 -33.55Q93.3 -29.9 93.3 -24.2Q93.3 -18.4 96.7 -14.75Q100.1 -11.1 105.5 -11.1Z" fill="#0E141B"/>
  <path d="M147.3 -56.1Q144.1 -56.1 142 -58.25Q139.9 -60.4 139.9 -63.6Q139.9 -66.7 142 -68.9Q144.1 -71.1 147.3 -71.1Q150.5 -71.1 152.6 -68.9Q154.7 -66.7 154.7 -63.6Q154.7 -60.4 152.6 -58.25Q150.5 -56.1 147.3 -56.1ZM140.7 0V-48.3H153.9V0Z" fill="#0E141B"/>
  <path d="M164.5 0V-48.3H177.6V-43.7Q180.2 -46.4 183.75 -47.85Q187.3 -49.3 191.6 -49.3Q196.9 -49.3 201.1 -46.65Q205.3 -44 207.7 -39.7Q210.1 -35.4 210.1 -30.6V0H197V-27.7Q197 -32 194.25 -34.7Q191.5 -37.4 187.3 -37.4Q183.1 -37.4 180.35 -34.7Q177.6 -32 177.6 -27.7V0Z" fill="#0E141B"/>
  <path d="M238.5 0V-58.2H216.1V-70.3H274.6V-58.2H252.2V0Z" fill="#0E141B"/>
  <path d="M288.2 -56.1Q285 -56.1 282.9 -58.25Q280.8 -60.4 280.8 -63.6Q280.8 -66.7 282.9 -68.9Q285 -71.1 288.2 -71.1Q291.4 -71.1 293.5 -68.9Q295.6 -66.7 295.6 -63.6Q295.6 -60.4 293.5 -58.25Q291.4 -56.1 288.2 -56.1ZM281.6 0V-48.3H294.8V0Z" fill="#0E141B"/>
  <path d="M328.2 1Q320.8 1 314.9 -2.3Q309 -5.6 305.6 -11.3Q302.2 -17 302.2 -24.1Q302.2 -31.3 305.65 -37Q309.1 -42.7 314.95 -46.05Q320.8 -49.4 328.2 -49.4Q339.7 -49.4 347 -41.3L338.6 -32.8Q334.7 -37.1 328.2 -37.1Q322.7 -37.1 319.15 -33.5Q315.6 -29.9 315.6 -24.2Q315.6 -18.4 319.15 -14.8Q322.7 -11.2 328.2 -11.2Q334.8 -11.2 338.7 -15.7L347.2 -7.2Q339.7 1 328.2 1Z" fill="#0E141B"/>
  <path d="M353.6 0V-72.3H366.7V-26.1L384.3 -48.3H399.4L380.4 -25.3L400.4 0H384.4L366.7 -23.5V0Z" fill="#0E141B"/>
  <path d="M428.5 1Q420.9 1 414.95 -2.25Q409 -5.5 405.6 -11.2Q402.2 -16.9 402.2 -24.2Q402.2 -31.3 405.55 -37Q408.9 -42.7 414.7 -46.05Q420.5 -49.4 427.6 -49.4Q434.5 -49.4 439.85 -46.25Q445.2 -43.1 448.3 -37.65Q451.4 -32.2 451.4 -25.3Q451.4 -22.8 450.7 -19.6L415.4 -19.5Q416.6 -15 420 -12.5Q423.4 -10 428.4 -10Q432 -10 435.05 -11.25Q438.1 -12.5 440.3 -15L448 -7.3Q444.4 -3.1 439.4 -1.05Q434.4 1 428.5 1ZM427.6 -38.5Q422.9 -38.5 419.75 -36.05Q416.6 -33.6 415.4 -29.3H438.8Q436.8 -38.5 427.6 -38.5Z" fill="#0E141B"/>
  <path d="M458.5 0V-48.3H471.6V-44Q473.8 -46.5 476.9 -47.9Q480 -49.3 484.1 -49.3Q491.1 -49.3 495.5 -44.4L487.3 -35Q484.9 -37.4 481.1 -37.4Q476.8 -37.4 474.2 -34.75Q471.6 -32.1 471.6 -26.7V0Z" fill="#0E141B"/>
</svg>
